<svg width="466" height="271" viewBox="0 0 466 271" fill="none" xmlns="http://www.w3.org/2000/svg">
<path d="M154.187 249.663V263.238C154.187 265.122 153.642 266.59 152.552 267.643C151.462 268.677 150.003 269.194 148.175 269.194C146.328 269.194 144.832 268.658 143.687 267.587C142.561 266.516 141.997 265.02 141.997 263.099H145.876C145.894 263.93 146.088 264.577 146.457 265.038C146.845 265.5 147.399 265.731 148.12 265.731C148.821 265.731 149.357 265.509 149.726 265.066C150.096 264.623 150.28 264.013 150.28 263.238V249.663H154.187ZM162.534 249.663V261.631C162.534 262.942 162.875 263.949 163.559 264.651C164.242 265.334 165.202 265.676 166.44 265.676C167.696 265.676 168.665 265.334 169.349 264.651C170.032 263.949 170.374 262.942 170.374 261.631V249.663H174.28V261.603C174.28 263.247 173.92 264.641 173.199 265.786C172.498 266.913 171.546 267.763 170.346 268.335C169.164 268.908 167.843 269.194 166.384 269.194C164.944 269.194 163.633 268.908 162.451 268.335C161.287 267.763 160.364 266.913 159.68 265.786C158.997 264.641 158.655 263.247 158.655 261.603V249.663H162.534ZM194.566 269H190.687L181.905 255.73V269H178.027V249.636H181.905L190.687 262.933V249.636H194.566V269ZM202.277 252.794V257.642H208.787V260.717H202.277V265.842H209.618V269H198.398V249.636H209.618V252.794H202.277ZM219.3 258.639C219.3 255.444 219.873 252.942 221.018 251.132C222.181 249.322 224.102 248.417 226.78 248.417C229.458 248.417 231.37 249.322 232.515 251.132C233.678 252.942 234.26 255.444 234.26 258.639C234.26 261.853 233.678 264.374 232.515 266.202C231.37 268.03 229.458 268.945 226.78 268.945C224.102 268.945 222.181 268.03 221.018 266.202C219.873 264.374 219.3 261.853 219.3 258.639ZM230.437 258.639C230.437 257.272 230.345 256.127 230.16 255.204C229.994 254.262 229.643 253.496 229.107 252.905C228.59 252.314 227.814 252.018 226.78 252.018C225.746 252.018 224.961 252.314 224.425 252.905C223.908 253.496 223.557 254.262 223.373 255.204C223.206 256.127 223.123 257.272 223.123 258.639C223.123 260.043 223.206 261.225 223.373 262.185C223.539 263.127 223.89 263.893 224.425 264.484C224.961 265.057 225.746 265.343 226.78 265.343C227.814 265.343 228.599 265.057 229.135 264.484C229.67 263.893 230.021 263.127 230.188 262.185C230.354 261.225 230.437 260.043 230.437 258.639ZM241.698 263.321C241.845 264.134 242.178 264.761 242.695 265.205C243.231 265.629 243.942 265.842 244.828 265.842C245.973 265.842 246.804 265.371 247.321 264.429C247.838 263.469 248.097 261.862 248.097 259.609C247.672 260.2 247.072 260.661 246.296 260.994C245.539 261.326 244.717 261.493 243.831 261.493C242.649 261.493 241.578 261.252 240.617 260.772C239.675 260.274 238.927 259.544 238.373 258.584C237.819 257.605 237.542 256.423 237.542 255.038C237.542 252.988 238.152 251.363 239.371 250.162C240.59 248.943 242.252 248.334 244.357 248.334C246.98 248.334 248.827 249.174 249.898 250.855C250.987 252.535 251.532 255.065 251.532 258.445C251.532 260.846 251.32 262.813 250.895 264.346C250.489 265.879 249.778 267.042 248.762 267.836C247.765 268.631 246.398 269.028 244.662 269.028C243.295 269.028 242.132 268.769 241.171 268.252C240.211 267.716 239.472 267.024 238.955 266.174C238.456 265.306 238.17 264.355 238.096 263.321H241.698ZM244.634 258.334C245.595 258.334 246.352 258.039 246.906 257.448C247.46 256.857 247.737 256.063 247.737 255.065C247.737 253.976 247.441 253.136 246.85 252.545C246.278 251.935 245.493 251.63 244.496 251.63C243.498 251.63 242.704 251.944 242.113 252.572C241.541 253.182 241.254 253.994 241.254 255.01C241.254 255.989 241.531 256.792 242.086 257.42C242.658 258.03 243.508 258.334 244.634 258.334ZM262.371 264.623C264.144 263.145 265.557 261.917 266.61 260.938C267.662 259.941 268.54 258.907 269.241 257.836C269.943 256.765 270.294 255.712 270.294 254.678C270.294 253.736 270.073 252.997 269.629 252.461C269.186 251.926 268.503 251.658 267.579 251.658C266.656 251.658 265.945 251.972 265.446 252.6C264.948 253.209 264.689 254.05 264.67 255.121H260.903C260.977 252.905 261.632 251.224 262.87 250.079C264.126 248.934 265.714 248.361 267.635 248.361C269.74 248.361 271.356 248.925 272.483 250.051C273.609 251.159 274.173 252.628 274.173 254.456C274.173 255.897 273.785 257.272 273.009 258.584C272.233 259.895 271.347 261.04 270.35 262.019C269.352 262.979 268.05 264.143 266.443 265.509H274.616V268.723H260.931V265.842L262.371 264.623ZM277.06 258.639C277.06 255.444 277.632 252.942 278.777 251.132C279.941 249.322 281.862 248.417 284.539 248.417C287.217 248.417 289.129 249.322 290.274 251.132C291.437 252.942 292.019 255.444 292.019 258.639C292.019 261.853 291.437 264.374 290.274 266.202C289.129 268.03 287.217 268.945 284.539 268.945C281.862 268.945 279.941 268.03 278.777 266.202C277.632 264.374 277.06 261.853 277.06 258.639ZM288.196 258.639C288.196 257.272 288.104 256.127 287.919 255.204C287.753 254.262 287.402 253.496 286.867 252.905C286.349 252.314 285.574 252.018 284.539 252.018C283.505 252.018 282.72 252.314 282.185 252.905C281.668 253.496 281.317 254.262 281.132 255.204C280.966 256.127 280.883 257.272 280.883 258.639C280.883 260.043 280.966 261.225 281.132 262.185C281.298 263.127 281.649 263.893 282.185 264.484C282.72 265.057 283.505 265.343 284.539 265.343C285.574 265.343 286.359 265.057 286.894 264.484C287.43 263.893 287.781 263.127 287.947 262.185C288.113 261.225 288.196 260.043 288.196 258.639ZM296.188 264.623C297.961 263.145 299.374 261.917 300.427 260.938C301.479 259.941 302.357 258.907 303.058 257.836C303.76 256.765 304.111 255.712 304.111 254.678C304.111 253.736 303.889 252.997 303.446 252.461C303.003 251.926 302.32 251.658 301.396 251.658C300.473 251.658 299.762 251.972 299.263 252.6C298.764 253.209 298.506 254.05 298.487 255.121H294.72C294.794 252.905 295.449 251.224 296.687 250.079C297.943 248.934 299.531 248.361 301.452 248.361C303.557 248.361 305.173 248.925 306.3 250.051C307.426 251.159 307.99 252.628 307.99 254.456C307.99 255.897 307.602 257.272 306.826 258.584C306.05 259.895 305.164 261.04 304.167 262.019C303.169 262.979 301.867 264.143 300.26 265.509H308.433V268.723H294.748V265.842L296.188 264.623ZM310.932 254.124C311.024 252.277 311.671 250.855 312.871 249.857C314.09 248.842 315.688 248.334 317.664 248.334C319.012 248.334 320.166 248.574 321.127 249.054C322.087 249.516 322.807 250.153 323.288 250.965C323.786 251.76 324.036 252.665 324.036 253.68C324.036 254.844 323.731 255.832 323.121 256.645C322.53 257.439 321.819 257.974 320.988 258.251V258.362C322.059 258.695 322.89 259.286 323.481 260.135C324.091 260.985 324.396 262.074 324.396 263.404C324.396 264.512 324.137 265.5 323.62 266.368C323.121 267.236 322.373 267.92 321.376 268.418C320.397 268.898 319.215 269.139 317.83 269.139C315.743 269.139 314.044 268.612 312.733 267.559C311.421 266.507 310.729 264.955 310.655 262.905H314.423C314.46 263.81 314.764 264.54 315.337 265.094C315.928 265.629 316.731 265.897 317.747 265.897C318.689 265.897 319.409 265.639 319.908 265.122C320.425 264.586 320.683 263.903 320.683 263.072C320.683 261.963 320.333 261.169 319.631 260.689C318.929 260.209 317.839 259.969 316.362 259.969H315.558V256.783H316.362C318.984 256.783 320.296 255.906 320.296 254.151C320.296 253.357 320.056 252.738 319.575 252.295C319.114 251.852 318.44 251.63 317.553 251.63C316.685 251.63 316.011 251.87 315.531 252.351C315.069 252.812 314.801 253.403 314.727 254.124H310.932Z" fill="white"/>
<path d="M18.531 143.95V149.877H33.5193V161.255H18.531V168.068H35.5632V180.126H3.40643V131.891H35.5632V143.95H18.531ZM87.5224 180.126H72.3979L56.3876 155.873V180.126H41.2631V131.891H56.3876L72.3979 156.554V131.891H87.5224V180.126ZM109.48 131.891V180.126H94.3555V131.891H109.48ZM145.879 148.378C145.288 147.425 144.448 146.698 143.358 146.198C142.268 145.653 140.951 145.381 139.407 145.381C136.5 145.381 134.252 146.335 132.662 148.242C131.072 150.104 130.277 152.67 130.277 155.941C130.277 159.71 131.163 162.526 132.934 164.389C134.706 166.251 137.431 167.182 141.11 167.182C144.607 167.182 147.423 165.774 149.558 162.958H137.499V152.262H162.094V167.386C160.004 170.974 157.12 174.063 153.441 176.652C149.762 179.195 145.107 180.467 139.475 180.467C134.479 180.467 130.118 179.445 126.394 177.401C122.715 175.312 119.876 172.405 117.878 168.681C115.925 164.956 114.948 160.71 114.948 155.941C114.948 151.172 115.925 146.925 117.878 143.201C119.876 139.476 122.715 136.592 126.394 134.548C130.073 132.459 134.388 131.414 139.339 131.414C145.652 131.414 150.784 132.936 154.736 135.979C158.733 139.022 161.094 143.155 161.821 148.378H145.879ZM225.518 131.891V180.126H210.462V156.077L203.036 180.126H190.091L182.665 156.077V180.126H167.541V131.891H186.072L196.7 160.846L207.055 131.891H225.518ZM263.273 172.837H247.195L244.81 180.126H228.936L246.582 131.891H264.023L281.6 180.126H265.658L263.273 172.837ZM259.594 161.459L255.234 148.038L250.874 161.459H259.594ZM375.205 151.989H360.217L368.256 131.891H378.203L375.205 151.989ZM384.466 168.068C390.552 163.526 395.367 159.415 398.909 155.736C402.452 152.012 404.223 148.537 404.223 145.313C404.223 144.223 403.974 143.382 403.474 142.792C403.02 142.201 402.407 141.906 401.634 141.906C400.726 141.906 399.999 142.383 399.454 143.337C398.955 144.245 398.773 145.653 398.909 147.561H384.262C384.398 143.337 385.306 139.862 386.987 137.137C388.713 134.412 390.938 132.414 393.663 131.142C396.389 129.87 399.386 129.234 402.656 129.234C408.47 129.234 412.717 130.642 415.396 133.458C418.122 136.229 419.484 139.794 419.484 144.154C419.484 148.742 418.008 153.057 415.056 157.099C412.149 161.096 408.493 164.479 404.087 167.25H419.689V179.445H384.466V168.068ZM424.213 145.926C424.349 140.521 425.916 136.388 428.914 133.526C431.957 130.665 436.249 129.234 441.79 129.234C445.378 129.234 448.444 129.847 450.987 131.074C453.531 132.3 455.438 133.958 456.71 136.047C458.027 138.136 458.686 140.498 458.686 143.132C458.686 146.312 457.936 148.81 456.438 150.627C454.939 152.398 453.258 153.602 451.396 154.237V154.51C456.846 156.554 459.571 160.346 459.571 165.887C459.571 168.794 458.89 171.36 457.528 173.586C456.165 175.812 454.212 177.537 451.669 178.764C449.171 179.99 446.196 180.603 442.744 180.603C436.839 180.603 432.206 179.195 428.845 176.379C425.484 173.563 423.759 169.158 423.668 163.162H438.383C438.293 164.797 438.52 166.046 439.065 166.909C439.655 167.727 440.654 168.136 442.062 168.136C442.88 168.136 443.561 167.84 444.106 167.25C444.651 166.614 444.924 165.797 444.924 164.797C444.924 163.526 444.492 162.572 443.629 161.936C442.812 161.255 441.404 160.914 439.405 160.914H436.885V148.719H439.337C442.426 148.901 443.97 147.674 443.97 145.04C443.97 143.905 443.72 143.064 443.221 142.519C442.766 141.974 442.176 141.702 441.449 141.702C439.769 141.702 438.928 143.11 438.928 145.926H424.213Z" fill="white"/>
<path d="M338.915 180.126L330.058 167.591L322.7 180.126H305.464L321.338 155.259L304.783 131.891H322.7L331.217 143.95L338.302 131.891H355.538L339.937 156.281L356.833 180.126H338.915Z" fill="#FFD600"/>
<mask id="mask0_70_51" style="mask-type:alpha" maskUnits="userSpaceOnUse" x="0" y="78" width="464" height="44">
<rect y="78.0737" width="463.275" height="43.6023" fill="#D9D9D9"/>
</mask>
<g mask="url(#mask0_70_51)">
<path d="M18.531 104.435V110.363H33.5193V121.74H18.531V128.553H35.5632V140.612H3.40643V92.3766H35.5632V104.435H18.531ZM87.5224 140.612H72.3979L56.3876 116.358V140.612H41.2631V92.3766H56.3876L72.3979 117.039V92.3766H87.5224V140.612ZM109.48 92.3766V140.612H94.3555V92.3766H109.48ZM145.879 108.864C145.288 107.91 144.448 107.183 143.358 106.684C142.268 106.139 140.951 105.866 139.407 105.866C136.5 105.866 134.252 106.82 132.662 108.727C131.072 110.59 130.277 113.156 130.277 116.426C130.277 120.196 131.163 123.012 132.934 124.874C134.706 126.736 137.431 127.667 141.11 127.667C144.607 127.667 147.423 126.259 149.558 123.443H137.499V112.747H162.094V127.872C160.004 131.46 157.12 134.548 153.441 137.137C149.762 139.681 145.107 140.952 139.475 140.952C134.479 140.952 130.118 139.93 126.394 137.887C122.715 135.797 119.876 132.89 117.878 129.166C115.925 125.442 114.948 121.195 114.948 116.426C114.948 111.657 115.925 107.41 117.878 103.686C119.876 99.9616 122.715 97.0775 126.394 95.0336C130.073 92.9443 134.388 91.8997 139.339 91.8997C145.652 91.8997 150.784 93.4212 154.736 96.4643C158.733 99.5074 161.094 103.641 161.821 108.864H145.879ZM225.518 92.3766V140.612H210.462V116.562L203.036 140.612H190.091L182.665 116.562V140.612H167.541V92.3766H186.072L196.7 121.331L207.055 92.3766H225.518ZM263.273 133.322H247.195L244.81 140.612H228.936L246.582 92.3766H264.023L281.6 140.612H265.658L263.273 133.322ZM259.594 121.944L255.234 108.523L250.874 121.944H259.594ZM375.205 112.475H360.217L368.256 92.3766H378.203L375.205 112.475ZM384.466 128.553C390.552 124.011 395.367 119.901 398.909 116.222C402.452 112.497 404.223 109.023 404.223 105.798C404.223 104.708 403.974 103.868 403.474 103.277C403.02 102.687 402.407 102.392 401.634 102.392C400.726 102.392 399.999 102.868 399.454 103.822C398.955 104.731 398.773 106.139 398.909 108.046H384.262C384.398 103.822 385.306 100.348 386.987 97.6225C388.713 94.8974 390.938 92.8989 393.663 91.6272C396.389 90.3554 399.386 89.7196 402.656 89.7196C408.47 89.7196 412.717 91.1276 415.396 93.9436C418.122 96.7141 419.484 100.28 419.484 104.64C419.484 109.227 418.008 113.542 415.056 117.584C412.149 121.581 408.493 124.965 404.087 127.735H419.689V139.93H384.466V128.553ZM424.213 106.411C424.349 101.006 425.916 96.8731 428.914 94.0117C431.957 91.1503 436.249 89.7196 441.79 89.7196C445.378 89.7196 448.444 90.3327 450.987 91.5591C453.531 92.7854 455.438 94.4432 456.71 96.5324C458.027 98.6217 458.686 100.984 458.686 103.618C458.686 106.797 457.936 109.295 456.438 111.112C454.939 112.883 453.258 114.087 451.396 114.723V114.995C456.846 117.039 459.571 120.832 459.571 126.373C459.571 129.28 458.89 131.846 457.528 134.071C456.165 136.297 454.212 138.023 451.669 139.249C449.171 140.475 446.196 141.089 442.744 141.089C436.839 141.089 432.206 139.681 428.845 136.865C425.484 134.049 423.759 129.643 423.668 123.648H438.383C438.293 125.283 438.52 126.532 439.065 127.395C439.655 128.212 440.654 128.621 442.062 128.621C442.88 128.621 443.561 128.326 444.106 127.735C444.651 127.1 444.924 126.282 444.924 125.283C444.924 124.011 444.492 123.057 443.629 122.421C442.812 121.74 441.404 121.399 439.405 121.399H436.885V109.204H439.337C442.426 109.386 443.97 108.16 443.97 105.525C443.97 104.39 443.72 103.55 443.221 103.005C442.766 102.46 442.176 102.187 441.449 102.187C439.769 102.187 438.928 103.595 438.928 106.411H424.213Z" fill="white"/>
<path d="M338.915 140.612L330.058 128.076L322.7 140.612H305.464L321.338 115.745L304.783 92.3766H322.7L331.217 104.435L338.302 92.3766H355.538L339.937 116.767L356.833 140.612H338.915Z" fill="#FFD600"/>
</g>
<mask id="mask1_70_51" style="mask-type:alpha" maskUnits="userSpaceOnUse" x="0" y="56" width="464" height="31">
<rect y="56" width="463.275" height="30.1005" fill="#D9D9D9"/>
</mask>
<g mask="url(#mask1_70_51)">
<path d="M18.531 79.4081V85.3353H33.5193V96.7128H18.531V103.526H35.5632V115.584H3.40643V67.3493H35.5632V79.4081H18.531ZM87.5224 115.584H72.3979L56.3876 91.3306V115.584H41.2631V67.3493H56.3876L72.3979 92.0119V67.3493H87.5224V115.584ZM109.48 67.3493V115.584H94.3555V67.3493H109.48ZM145.879 83.8365C145.288 82.8827 144.448 82.1559 143.358 81.6563C142.268 81.1113 140.951 80.8388 139.407 80.8388C136.5 80.8388 134.252 81.7926 132.662 83.7002C131.072 85.5624 130.277 88.1286 130.277 91.3987C130.277 95.1685 131.163 97.9845 132.934 99.8467C134.706 101.709 137.431 102.64 141.11 102.64C144.607 102.64 147.423 101.232 149.558 98.416H137.499V87.7198H162.094V102.844C160.004 106.432 157.12 109.521 153.441 112.11C149.762 114.653 145.107 115.925 139.475 115.925C134.479 115.925 130.118 114.903 126.394 112.859C122.715 110.77 119.876 107.863 117.878 104.139C115.925 100.414 114.948 96.1677 114.948 91.3987C114.948 86.6297 115.925 82.383 117.878 78.6587C119.876 74.9343 122.715 72.0502 126.394 70.0063C130.073 67.9171 134.388 66.8724 139.339 66.8724C145.652 66.8724 150.784 68.394 154.736 71.437C158.733 74.4801 161.094 78.6133 161.821 83.8365H145.879ZM225.518 67.3493V115.584H210.462V91.535L203.036 115.584H190.091L182.665 91.535V115.584H167.541V67.3493H186.072L196.7 96.304L207.055 67.3493H225.518ZM263.273 108.295H247.195L244.81 115.584H228.936L246.582 67.3493H264.023L281.6 115.584H265.658L263.273 108.295ZM259.594 96.9172L255.234 83.4958L250.874 96.9172H259.594ZM375.205 87.4473H360.217L368.256 67.3493H378.203L375.205 87.4473ZM384.466 103.526C390.552 98.9837 395.367 94.8733 398.909 91.1943C402.452 87.47 404.223 83.9954 404.223 80.7707C404.223 79.6806 403.974 78.8404 403.474 78.2499C403.02 77.6595 402.407 77.3642 401.634 77.3642C400.726 77.3642 399.999 77.8411 399.454 78.7949C398.955 79.7033 398.773 81.1113 398.909 83.0189H384.262C384.398 78.7949 385.306 75.3204 386.987 72.5952C388.713 69.8701 390.938 67.8716 393.663 66.5999C396.389 65.3282 399.386 64.6923 402.656 64.6923C408.47 64.6923 412.717 66.1003 415.396 68.9163C418.122 71.6868 419.484 75.2522 419.484 79.6125C419.484 84.1998 418.008 88.5146 415.056 92.5569C412.149 96.5538 408.493 99.9375 404.087 102.708H419.689V114.903H384.466V103.526ZM424.213 81.3838C424.349 75.9789 425.916 71.8458 428.914 68.9844C431.957 66.123 436.249 64.6923 441.79 64.6923C445.378 64.6923 448.444 65.3055 450.987 66.5318C453.531 67.7581 455.438 69.4159 456.71 71.5052C458.027 73.5944 458.686 75.9562 458.686 78.5905C458.686 81.7699 457.936 84.2679 456.438 86.0847C454.939 87.856 453.258 89.0597 451.396 89.6955V89.968C456.846 92.0119 459.571 95.8044 459.571 101.346C459.571 104.252 458.89 106.819 457.528 109.044C456.165 111.27 454.212 112.996 451.669 114.222C449.171 115.448 446.196 116.061 442.744 116.061C436.839 116.061 432.206 114.653 428.845 111.837C425.484 109.021 423.759 104.616 423.668 98.6204H438.383C438.293 100.255 438.52 101.504 439.065 102.367C439.655 103.185 440.654 103.594 442.062 103.594C442.88 103.594 443.561 103.299 444.106 102.708C444.651 102.072 444.924 101.255 444.924 100.255C444.924 98.9837 444.492 98.0299 443.629 97.3941C442.812 96.7128 441.404 96.3721 439.405 96.3721H436.885V84.1771H439.337C442.426 84.3588 443.97 83.1325 443.97 80.4981C443.97 79.3627 443.72 78.5224 443.221 77.9774C442.766 77.4324 442.176 77.1598 441.449 77.1598C439.769 77.1598 438.928 78.5678 438.928 81.3838H424.213Z" fill="white"/>
<path d="M338.915 115.584L330.058 103.049L322.7 115.584H305.464L321.338 90.7174L304.783 67.3493H322.7L331.217 79.4081L338.302 67.3493H355.538L339.937 91.7394L356.833 115.584H338.915Z" fill="#FFD600"/>
</g>
<mask id="mask2_70_51" style="mask-type:alpha" maskUnits="userSpaceOnUse" x="0" y="208" width="464" height="31">
<rect y="208.437" width="463.275" height="30.1005" fill="#D9D9D9"/>
</mask>
<g mask="url(#mask2_70_51)">
<mask id="path-8-inside-1_70_51" fill="white">
<path d="M18.5311 186.278V192.205H33.5194V203.583H18.5311V210.396H35.5632V222.454H3.40649V174.219H35.5632V186.278H18.5311Z"/>
<path d="M87.5225 222.454H72.3979L56.3877 198.201V222.454H41.2631V174.219H56.3877L72.3979 198.882V174.219H87.5225V222.454Z"/>
<path d="M109.48 174.219V222.454H94.3556V174.219H109.48Z"/>
<path d="M145.879 190.707C145.289 189.753 144.448 189.026 143.358 188.526C142.268 187.981 140.951 187.709 139.407 187.709C136.5 187.709 134.252 188.663 132.662 190.57C131.072 192.432 130.278 194.999 130.278 198.269C130.278 202.039 131.163 204.855 132.935 206.717C134.706 208.579 137.431 209.51 141.11 209.51C144.607 209.51 147.423 208.102 149.558 205.286H137.499V194.59H162.094V209.714C160.004 213.303 157.12 216.391 153.441 218.98C149.762 221.523 145.107 222.795 139.475 222.795C134.479 222.795 130.119 221.773 126.394 219.729C122.715 217.64 119.877 214.733 117.878 211.009C115.925 207.285 114.949 203.038 114.949 198.269C114.949 193.5 115.925 189.253 117.878 185.529C119.877 181.804 122.715 178.92 126.394 176.876C130.073 174.787 134.388 173.742 139.339 173.742C145.652 173.742 150.784 175.264 154.736 178.307C158.733 181.35 161.094 185.483 161.821 190.707H145.879Z"/>
<path d="M225.518 174.219V222.454H210.462V198.405L203.036 222.454H190.091L182.665 198.405V222.454H167.541V174.219H186.072L196.7 203.174L207.055 174.219H225.518Z"/>
<path d="M263.273 215.165H247.195L244.81 222.454H228.936L246.582 174.219H264.023L281.6 222.454H265.658L263.273 215.165ZM259.594 203.787L255.234 190.366L250.874 203.787H259.594Z"/>
<path d="M338.915 222.454L330.058 209.919L322.701 222.454H305.464L321.338 197.588L304.783 174.219H322.701L331.217 186.278L338.302 174.219H355.539L339.937 198.609L356.833 222.454H338.915Z"/>
<path d="M375.205 194.317H360.217L368.256 174.219H378.203L375.205 194.317Z"/>
<path d="M384.466 210.396C390.552 205.854 395.367 201.743 398.909 198.064C402.452 194.34 404.223 190.866 404.223 187.641C404.223 186.551 403.974 185.71 403.474 185.12C403.02 184.53 402.407 184.234 401.634 184.234C400.726 184.234 399.999 184.711 399.454 185.665C398.955 186.573 398.773 187.981 398.909 189.889H384.262C384.398 185.665 385.306 182.19 386.987 179.465C388.713 176.74 390.938 174.742 393.663 173.47C396.389 172.198 399.386 171.562 402.656 171.562C408.47 171.562 412.717 172.97 415.396 175.786C418.122 178.557 419.484 182.122 419.484 186.483C419.484 191.07 418.008 195.385 415.056 199.427C412.149 203.424 408.493 206.808 404.087 209.578H419.689V221.773H384.466V210.396Z"/>
<path d="M424.213 188.254C424.349 182.849 425.916 178.716 428.914 175.854C431.957 172.993 436.249 171.562 441.79 171.562C445.378 171.562 448.444 172.176 450.987 173.402C453.531 174.628 455.438 176.286 456.71 178.375C458.027 180.465 458.686 182.826 458.686 185.461C458.686 188.64 457.936 191.138 456.438 192.955C454.939 194.726 453.258 195.93 451.396 196.566V196.838C456.846 198.882 459.572 202.674 459.572 208.216C459.572 211.122 458.89 213.689 457.528 215.914C456.165 218.14 454.212 219.866 451.669 221.092C449.171 222.318 446.196 222.931 442.744 222.931C436.839 222.931 432.207 221.523 428.845 218.707C425.484 215.891 423.759 211.486 423.668 205.49H438.384C438.293 207.126 438.52 208.375 439.065 209.238C439.655 210.055 440.654 210.464 442.062 210.464C442.88 210.464 443.561 210.169 444.106 209.578C444.651 208.942 444.924 208.125 444.924 207.126C444.924 205.854 444.492 204.9 443.629 204.264C442.812 203.583 441.404 203.242 439.405 203.242H436.885V191.047H439.337C442.426 191.229 443.97 190.003 443.97 187.368C443.97 186.233 443.72 185.392 443.221 184.847C442.766 184.302 442.176 184.03 441.449 184.03C439.769 184.03 438.929 185.438 438.929 188.254H424.213Z"/>
</mask>
<path d="M18.5311 186.278V192.205H33.5194V203.583H18.5311V210.396H35.5632V222.454H3.40649V174.219H35.5632V186.278H18.5311Z" stroke="white" stroke-width="3.62646" mask="url(#path-8-inside-1_70_51)"/>
<path d="M87.5225 222.454H72.3979L56.3877 198.201V222.454H41.2631V174.219H56.3877L72.3979 198.882V174.219H87.5225V222.454Z" stroke="white" stroke-width="3.62646" mask="url(#path-8-inside-1_70_51)"/>
<path d="M109.48 174.219V222.454H94.3556V174.219H109.48Z" stroke="white" stroke-width="3.62646" mask="url(#path-8-inside-1_70_51)"/>
<path d="M145.879 190.707C145.289 189.753 144.448 189.026 143.358 188.526C142.268 187.981 140.951 187.709 139.407 187.709C136.5 187.709 134.252 188.663 132.662 190.57C131.072 192.432 130.278 194.999 130.278 198.269C130.278 202.039 131.163 204.855 132.935 206.717C134.706 208.579 137.431 209.51 141.11 209.51C144.607 209.51 147.423 208.102 149.558 205.286H137.499V194.59H162.094V209.714C160.004 213.303 157.12 216.391 153.441 218.98C149.762 221.523 145.107 222.795 139.475 222.795C134.479 222.795 130.119 221.773 126.394 219.729C122.715 217.64 119.877 214.733 117.878 211.009C115.925 207.285 114.949 203.038 114.949 198.269C114.949 193.5 115.925 189.253 117.878 185.529C119.877 181.804 122.715 178.92 126.394 176.876C130.073 174.787 134.388 173.742 139.339 173.742C145.652 173.742 150.784 175.264 154.736 178.307C158.733 181.35 161.094 185.483 161.821 190.707H145.879Z" stroke="white" stroke-width="3.62646" mask="url(#path-8-inside-1_70_51)"/>
<path d="M225.518 174.219V222.454H210.462V198.405L203.036 222.454H190.091L182.665 198.405V222.454H167.541V174.219H186.072L196.7 203.174L207.055 174.219H225.518Z" stroke="white" stroke-width="3.62646" mask="url(#path-8-inside-1_70_51)"/>
<path d="M263.273 215.165H247.195L244.81 222.454H228.936L246.582 174.219H264.023L281.6 222.454H265.658L263.273 215.165ZM259.594 203.787L255.234 190.366L250.874 203.787H259.594Z" stroke="white" stroke-width="3.62646" mask="url(#path-8-inside-1_70_51)"/>
<path d="M338.915 222.454L330.058 209.919L322.701 222.454H305.464L321.338 197.588L304.783 174.219H322.701L331.217 186.278L338.302 174.219H355.539L339.937 198.609L356.833 222.454H338.915Z" stroke="white" stroke-width="3.62646" mask="url(#path-8-inside-1_70_51)"/>
<path d="M375.205 194.317H360.217L368.256 174.219H378.203L375.205 194.317Z" stroke="white" stroke-width="3.62646" mask="url(#path-8-inside-1_70_51)"/>
<path d="M384.466 210.396C390.552 205.854 395.367 201.743 398.909 198.064C402.452 194.34 404.223 190.866 404.223 187.641C404.223 186.551 403.974 185.71 403.474 185.12C403.02 184.53 402.407 184.234 401.634 184.234C400.726 184.234 399.999 184.711 399.454 185.665C398.955 186.573 398.773 187.981 398.909 189.889H384.262C384.398 185.665 385.306 182.19 386.987 179.465C388.713 176.74 390.938 174.742 393.663 173.47C396.389 172.198 399.386 171.562 402.656 171.562C408.47 171.562 412.717 172.97 415.396 175.786C418.122 178.557 419.484 182.122 419.484 186.483C419.484 191.07 418.008 195.385 415.056 199.427C412.149 203.424 408.493 206.808 404.087 209.578H419.689V221.773H384.466V210.396Z" stroke="white" stroke-width="3.62646" mask="url(#path-8-inside-1_70_51)"/>
<path d="M424.213 188.254C424.349 182.849 425.916 178.716 428.914 175.854C431.957 172.993 436.249 171.562 441.79 171.562C445.378 171.562 448.444 172.176 450.987 173.402C453.531 174.628 455.438 176.286 456.71 178.375C458.027 180.465 458.686 182.826 458.686 185.461C458.686 188.64 457.936 191.138 456.438 192.955C454.939 194.726 453.258 195.93 451.396 196.566V196.838C456.846 198.882 459.572 202.674 459.572 208.216C459.572 211.122 458.89 213.689 457.528 215.914C456.165 218.14 454.212 219.866 451.669 221.092C449.171 222.318 446.196 222.931 442.744 222.931C436.839 222.931 432.207 221.523 428.845 218.707C425.484 215.891 423.759 211.486 423.668 205.49H438.384C438.293 207.126 438.52 208.375 439.065 209.238C439.655 210.055 440.654 210.464 442.062 210.464C442.88 210.464 443.561 210.169 444.106 209.578C444.651 208.942 444.924 208.125 444.924 207.126C444.924 205.854 444.492 204.9 443.629 204.264C442.812 203.583 441.404 203.242 439.405 203.242H436.885V191.047H439.337C442.426 191.229 443.97 190.003 443.97 187.368C443.97 186.233 443.72 185.392 443.221 184.847C442.766 184.302 442.176 184.03 441.449 184.03C439.769 184.03 438.929 185.438 438.929 188.254H424.213Z" stroke="white" stroke-width="3.62646" mask="url(#path-8-inside-1_70_51)"/>
</g>
<path d="M4.25413 189.839V196.196C4.25413 196.717 4.36566 197.131 4.58872 197.439C4.82241 197.737 5.19418 197.885 5.70404 197.885C6.2139 197.885 6.59098 197.737 6.83529 197.439C7.07959 197.131 7.20175 196.717 7.20175 196.196V189.839H10.723V196.196C10.723 197.269 10.4999 198.188 10.0538 198.953C9.60764 199.707 8.99687 200.275 8.22146 200.658C7.44605 201.04 6.58036 201.231 5.62437 201.231C4.66839 201.231 3.81862 201.04 3.07508 200.658C2.34216 200.275 1.76857 199.707 1.35431 198.953C0.940051 198.199 0.732921 197.28 0.732921 196.196V189.839H4.25413ZM23.0671 201.12H19.53L15.7857 195.447V201.12H12.2485V189.839H15.7857L19.53 195.607V189.839H23.0671V201.12ZM36.0254 189.839L32.2333 201.12H27.6605L23.8685 189.839H27.6287L29.9549 197.598L32.2652 189.839H36.0254ZM40.3543 192.659V194.045H43.8596V196.706H40.3543V198.299H44.3376V201.12H36.8172V189.839H44.3376V192.659H40.3543ZM49.2078 189.839V201.12H45.6706V189.839H49.2078ZM54.3425 198.443H57.7521V201.12H50.8053V189.839H54.3425V198.443ZM62.4023 189.839V201.12H58.8652V189.839H62.4023ZM74.8184 201.12H71.2813L67.537 195.447V201.12H63.9999V189.839H67.537L71.2813 195.607V189.839H74.8184V201.12ZM83.3314 193.695C83.1933 193.472 82.9968 193.302 82.7419 193.185C82.487 193.057 82.1789 192.994 81.8178 192.994C81.138 192.994 80.6122 193.217 80.2404 193.663C79.8686 194.098 79.6828 194.699 79.6828 195.463C79.6828 196.345 79.8899 197.004 80.3041 197.439C80.7184 197.875 81.3557 198.092 82.2161 198.092C83.034 198.092 83.6926 197.763 84.1918 197.104H81.3717V194.603H87.1235V198.14C86.6349 198.979 85.9604 199.702 85.1 200.307C84.2396 200.902 83.1508 201.199 81.8337 201.199C80.6653 201.199 79.6456 200.96 78.7746 200.482C77.9142 199.994 77.2503 199.314 76.7829 198.443C76.3262 197.572 76.0978 196.579 76.0978 195.463C76.0978 194.348 76.3262 193.355 76.7829 192.484C77.2503 191.613 77.9142 190.938 78.7746 190.46C79.635 189.972 80.644 189.727 81.8018 189.727C83.2783 189.727 84.4786 190.083 85.4027 190.795C86.3375 191.507 86.8898 192.473 87.0598 193.695H83.3314ZM94.6419 192.659V194.045H98.1472V196.706H94.6419V198.299H98.6252V201.12H91.1048V189.839H98.6252V192.659H94.6419ZM110.777 201.12H107.24L103.495 195.447V201.12H99.9582V189.839H103.495L107.24 195.607V189.839H110.777V201.12ZM119.29 193.695C119.152 193.472 118.955 193.302 118.7 193.185C118.445 193.057 118.137 192.994 117.776 192.994C117.096 192.994 116.57 193.217 116.199 193.663C115.827 194.098 115.641 194.699 115.641 195.463C115.641 196.345 115.848 197.004 116.262 197.439C116.677 197.875 117.314 198.092 118.174 198.092C118.992 198.092 119.651 197.763 120.15 197.104H117.33V194.603H123.082V198.14C122.593 198.979 121.919 199.702 121.058 200.307C120.198 200.902 119.109 201.199 117.792 201.199C116.624 201.199 115.604 200.96 114.733 200.482C113.872 199.994 113.209 199.314 112.741 198.443C112.284 197.572 112.056 196.579 112.056 195.463C112.056 194.348 112.284 193.355 112.741 192.484C113.209 191.613 113.872 190.938 114.733 190.46C115.593 189.972 116.602 189.727 117.76 189.727C119.237 189.727 120.437 190.083 121.361 190.795C122.296 191.507 122.848 192.473 123.018 193.695H119.29ZM127.893 189.839V201.12H124.356V189.839H127.893ZM140.309 201.12H136.772L133.028 195.447V201.12H129.49V189.839H133.028L136.772 195.607V189.839H140.309V201.12ZM145.444 192.659V194.045H148.949V196.706H145.444V198.299H149.427V201.12H141.907V189.839H149.427V192.659H145.444ZM154.298 192.659V194.045H157.803V196.706H154.298V198.299H158.281V201.12H150.76V189.839H158.281V192.659H154.298ZM165.286 201.12L163.167 197.073H163.151V201.12H159.614V189.839H164.872C165.785 189.839 166.566 190.004 167.214 190.333C167.862 190.652 168.345 191.092 168.664 191.655C168.993 192.208 169.158 192.834 169.158 193.535C169.158 194.29 168.945 194.959 168.52 195.543C168.106 196.127 167.506 196.547 166.72 196.802L169.174 201.12H165.286ZM163.151 194.715H164.553C164.893 194.715 165.148 194.64 165.318 194.491C165.488 194.332 165.573 194.088 165.573 193.759C165.573 193.461 165.483 193.227 165.302 193.057C165.132 192.888 164.882 192.803 164.553 192.803H163.151V194.715ZM173.825 189.839V201.12H170.288V189.839H173.825ZM186.241 201.12H182.704L178.96 195.447V201.12H175.422V189.839H178.96L182.704 195.607V189.839H186.241V201.12ZM194.754 193.695C194.616 193.472 194.419 193.302 194.164 193.185C193.91 193.057 193.601 192.994 193.24 192.994C192.561 192.994 192.035 193.217 191.663 193.663C191.291 194.098 191.105 194.699 191.105 195.463C191.105 196.345 191.312 197.004 191.727 197.439C192.141 197.875 192.778 198.092 193.639 198.092C194.457 198.092 195.115 197.763 195.614 197.104H192.794V194.603H198.546V198.14C198.057 198.979 197.383 199.702 196.523 200.307C195.662 200.902 194.573 201.199 193.256 201.199C192.088 201.199 191.068 200.96 190.197 200.482C189.337 199.994 188.673 199.314 188.205 198.443C187.749 197.572 187.52 196.579 187.52 195.463C187.52 194.348 187.749 193.355 188.205 192.484C188.673 191.613 189.337 190.938 190.197 190.46C191.057 189.972 192.067 189.727 193.224 189.727C194.701 189.727 195.901 190.083 196.825 190.795C197.76 191.507 198.312 192.473 198.482 193.695H194.754ZM209.761 199.415H206.001L205.443 201.12H201.731L205.857 189.839H209.936L214.047 201.12H210.319L209.761 199.415ZM208.901 196.754L207.881 193.615L206.861 196.754H208.901ZM225.669 201.12H222.132L218.388 195.447V201.12H214.851V189.839H218.388L222.132 195.607V189.839H225.669V201.12ZM231.967 189.839C233.146 189.839 234.177 190.078 235.058 190.556C235.951 191.034 236.636 191.698 237.114 192.548C237.592 193.397 237.831 194.364 237.831 195.447C237.831 196.52 237.592 197.487 237.114 198.347C236.636 199.208 235.951 199.887 235.058 200.387C234.177 200.875 233.146 201.12 231.967 201.12H227.267V189.839H231.967ZM231.649 197.965C232.445 197.965 233.077 197.747 233.545 197.312C234.012 196.876 234.246 196.255 234.246 195.447C234.246 194.64 234.012 194.019 233.545 193.583C233.077 193.148 232.445 192.93 231.649 192.93H230.804V197.965H231.649ZM255.374 189.839V201.12H251.853V195.495L250.117 201.12H247.089L245.353 195.495V201.12H241.815V189.839H246.149L248.635 196.611L251.057 189.839H255.374ZM264.204 199.415H260.444L259.886 201.12H256.174L260.3 189.839H264.379L268.49 201.12H264.762L264.204 199.415ZM263.344 196.754L262.324 193.615L261.304 196.754H263.344ZM280.112 201.12H276.575L272.831 195.447V201.12H269.294V189.839H272.831L276.575 195.607V189.839H280.112V201.12ZM288.944 199.415H285.184L284.626 201.12H280.914L285.04 189.839H289.119L293.23 201.12H289.502L288.944 199.415ZM288.084 196.754L287.064 193.615L286.044 196.754H288.084ZM300.948 193.695C300.81 193.472 300.614 193.302 300.359 193.185C300.104 193.057 299.796 192.994 299.435 192.994C298.755 192.994 298.229 193.217 297.857 193.663C297.486 194.098 297.3 194.699 297.3 195.463C297.3 196.345 297.507 197.004 297.921 197.439C298.335 197.875 298.973 198.092 299.833 198.092C300.651 198.092 301.31 197.763 301.809 197.104H298.989V194.603H304.741V198.14C304.252 198.979 303.577 199.702 302.717 200.307C301.857 200.902 300.768 201.199 299.451 201.199C298.282 201.199 297.263 200.96 296.392 200.482C295.531 199.994 294.867 199.314 294.4 198.443C293.943 197.572 293.715 196.579 293.715 195.463C293.715 194.348 293.943 193.355 294.4 192.484C294.867 191.613 295.531 190.938 296.392 190.46C297.252 189.972 298.261 189.727 299.419 189.727C300.895 189.727 302.096 190.083 303.02 190.795C303.955 191.507 304.507 192.473 304.677 193.695H300.948ZM309.552 192.659V194.045H313.057V196.706H309.552V198.299H313.535V201.12H306.014V189.839H313.535V192.659H309.552ZM328.427 189.839V201.12H324.906V195.495L323.169 201.12H320.142L318.405 195.495V201.12H314.868V189.839H319.202L321.687 196.611L324.109 189.839H328.427ZM333.56 192.659V194.045H337.065V196.706H333.56V198.299H337.543V201.12H330.023V189.839H337.543V192.659H333.56ZM349.695 201.12H346.158L342.414 195.447V201.12H338.876V189.839H342.414L346.158 195.607V189.839H349.695V201.12ZM360.152 189.839V192.643H357.156V201.12H353.619V192.643H350.656V189.839H360.152ZM367.356 192.659V194.045H370.861V196.706H367.356V198.299H371.339V201.12H363.818V189.839H371.339V192.659H367.356ZM379.858 201.12L377.786 198.188L376.066 201.12H372.035L375.747 195.304L371.875 189.839H376.066L378.057 192.659L379.714 189.839H383.745L380.097 195.543L384.048 201.12H379.858ZM384.521 195.463C384.521 194.348 384.744 193.355 385.19 192.484C385.647 191.613 386.295 190.938 387.134 190.46C387.973 189.972 388.961 189.727 390.097 189.727C391.075 189.727 391.946 189.913 392.71 190.285C393.486 190.646 394.113 191.161 394.591 191.831C395.079 192.5 395.403 193.281 395.562 194.173H391.834C391.664 193.801 391.42 193.514 391.101 193.312C390.793 193.1 390.437 192.994 390.034 192.994C389.439 192.994 388.966 193.217 388.616 193.663C388.276 194.109 388.106 194.709 388.106 195.463C388.106 196.218 388.276 196.818 388.616 197.264C388.966 197.71 389.439 197.933 390.034 197.933C390.437 197.933 390.793 197.832 391.101 197.63C391.42 197.418 391.664 197.126 391.834 196.754H395.562C395.403 197.646 395.079 198.427 394.591 199.096C394.113 199.765 393.486 200.286 392.71 200.658C391.946 201.019 391.075 201.199 390.097 201.199C388.961 201.199 387.973 200.96 387.134 200.482C386.295 199.994 385.647 199.314 385.19 198.443C384.744 197.572 384.521 196.579 384.521 195.463ZM400.373 192.659V194.045H403.878V196.706H400.373V198.299H404.356V201.12H396.836V189.839H404.356V192.659H400.373ZM409.227 198.443H412.636V201.12H405.689V189.839H409.227V198.443ZM417.286 198.443H420.696V201.12H413.749V189.839H417.286V198.443ZM425.346 192.659V194.045H428.852V196.706H425.346V198.299H429.33V201.12H421.809V189.839H429.33V192.659H425.346ZM441.481 201.12H437.944L434.2 195.447V201.12H430.663V189.839H434.2L437.944 195.607V189.839H441.481V201.12ZM442.761 195.463C442.761 194.348 442.984 193.355 443.43 192.484C443.887 191.613 444.534 190.938 445.374 190.46C446.213 189.972 447.201 189.727 448.337 189.727C449.314 189.727 450.185 189.913 450.95 190.285C451.726 190.646 452.352 191.161 452.83 191.831C453.319 192.5 453.643 193.281 453.802 194.173H450.074C449.904 193.801 449.66 193.514 449.341 193.312C449.033 193.1 448.677 192.994 448.273 192.994C447.679 192.994 447.206 193.217 446.855 193.663C446.515 194.109 446.346 194.709 446.346 195.463C446.346 196.218 446.515 196.818 446.855 197.264C447.206 197.71 447.679 197.933 448.273 197.933C448.677 197.933 449.033 197.832 449.341 197.63C449.66 197.418 449.904 197.126 450.074 196.754H453.802C453.643 197.646 453.319 198.427 452.83 199.096C452.352 199.765 451.726 200.286 450.95 200.658C450.185 201.019 449.314 201.199 448.337 201.199C447.201 201.199 446.213 200.96 445.374 200.482C444.534 199.994 443.887 199.314 443.43 198.443C442.984 197.572 442.761 196.579 442.761 195.463ZM458.613 192.659V194.045H462.118V196.706H458.613V198.299H462.596V201.12H455.076V189.839H462.596V192.659H458.613Z" fill="white"/>
<path d="M76.521 7.60015C76.521 8.70233 76.266 9.70581 75.7561 10.6106C75.2461 11.4989 74.4894 12.2063 73.4859 12.7327C72.4989 13.2591 71.298 13.5223 69.8832 13.5223H67.7118V19.0743H62.2338V1.60397H69.8832C72.0218 1.60397 73.6586 2.14683 74.7937 3.23256C75.9452 4.31829 76.521 5.77415 76.521 7.60015ZM69.2663 9.20407C70.4014 9.20407 70.969 8.66943 70.969 7.60015C70.969 6.53088 70.4014 5.99624 69.2663 5.99624H67.7118V9.20407H69.2663ZM99.2575 1.60397V19.0743H93.8042V10.3638L91.1145 19.0743H86.4262L83.7365 10.3638V19.0743H78.2585V1.60397H84.9703L88.8197 12.0911L92.5704 1.60397H99.2575ZM107.207 1.60397V19.0743H101.729V1.60397H107.207ZM113.381 10.3145C113.381 8.58718 113.726 7.04906 114.417 5.70013C115.125 4.35119 116.128 3.30659 117.428 2.56632C118.727 1.8096 120.257 1.43124 122.017 1.43124C123.531 1.43124 124.88 1.71912 126.064 2.29489C127.265 2.8542 128.236 3.65205 128.976 4.68843C129.733 5.7248 130.234 6.93391 130.481 8.31575H124.707C124.444 7.73998 124.065 7.29582 123.572 6.98326C123.095 6.65425 122.544 6.48975 121.919 6.48975C120.997 6.48975 120.265 6.83521 119.723 7.52613C119.196 8.21705 118.933 9.1465 118.933 10.3145C118.933 11.4825 119.196 12.4119 119.723 13.1028C120.265 13.7937 120.997 14.1392 121.919 14.1392C122.544 14.1392 123.095 13.9829 123.572 13.6704C124.065 13.3414 124.444 12.889 124.707 12.3132H130.481C130.234 13.695 129.733 14.9042 128.976 15.9405C128.236 16.9769 127.265 17.783 126.064 18.3587C124.88 18.9181 123.531 19.1977 122.017 19.1977C120.257 19.1977 118.727 18.8276 117.428 18.0873C116.128 17.3306 115.125 16.2778 114.417 14.9288C113.726 13.5799 113.381 12.0418 113.381 10.3145ZM131.96 10.3145C131.96 8.58718 132.305 7.04906 132.996 5.70013C133.704 4.35119 134.707 3.30659 136.007 2.56632C137.306 1.8096 138.836 1.43124 140.596 1.43124C142.11 1.43124 143.459 1.71912 144.643 2.29489C145.844 2.8542 146.815 3.65205 147.555 4.68843C148.312 5.7248 148.813 6.93391 149.06 8.31575H143.286C143.023 7.73998 142.644 7.29582 142.151 6.98326C141.674 6.65425 141.123 6.48975 140.498 6.48975C139.576 6.48975 138.844 6.83521 138.302 7.52613C137.775 8.21705 137.512 9.1465 137.512 10.3145C137.512 11.4825 137.775 12.4119 138.302 13.1028C138.844 13.7937 139.576 14.1392 140.498 14.1392C141.123 14.1392 141.674 13.9829 142.151 13.6704C142.644 13.3414 143.023 12.889 143.286 12.3132H149.06C148.813 13.695 148.312 14.9042 147.555 15.9405C146.815 16.9769 145.844 17.783 144.643 18.3587C143.459 18.9181 142.11 19.1977 140.596 19.1977C138.836 19.1977 137.306 18.8276 136.007 18.0873C134.707 17.3306 133.704 16.2778 132.996 14.9288C132.305 13.5799 131.96 12.0418 131.96 10.3145ZM156.51 5.97156V8.11834H161.939V12.2392H156.51V14.7067H162.679V19.0743H151.032V1.60397H162.679V5.97156H156.51ZM175.772 19.2471C173.683 19.2471 171.955 18.7618 170.59 17.7912C169.241 16.8042 168.509 15.3648 168.394 13.473H174.217C174.3 14.4764 174.744 14.9782 175.55 14.9782C175.846 14.9782 176.093 14.9124 176.29 14.7808C176.504 14.6327 176.611 14.4106 176.611 14.1145C176.611 13.7033 176.389 13.3743 175.945 13.1275C175.5 12.8643 174.81 12.5682 173.872 12.2392C172.753 11.8444 171.824 11.4578 171.084 11.0794C170.36 10.7011 169.735 10.15 169.208 9.42615C168.682 8.70233 168.427 7.77288 168.443 6.6378C168.443 5.50272 168.731 4.54037 169.307 3.75075C169.899 2.94468 170.697 2.33601 171.7 1.92475C172.72 1.51349 173.864 1.30786 175.13 1.30786C177.269 1.30786 178.963 1.80137 180.214 2.7884C181.48 3.77543 182.146 5.16549 182.212 6.95859H176.315C176.298 6.46507 176.175 6.11139 175.945 5.89753C175.714 5.68368 175.435 5.57675 175.106 5.57675C174.875 5.57675 174.686 5.659 174.538 5.82351C174.39 5.97156 174.316 6.18542 174.316 6.46507C174.316 6.85988 174.53 7.18889 174.958 7.4521C175.402 7.69886 176.101 8.00319 177.055 8.3651C178.157 8.77636 179.062 9.17117 179.769 9.54953C180.493 9.92789 181.118 10.4543 181.645 11.1288C182.171 11.8032 182.434 12.6504 182.434 13.6704C182.434 14.7396 182.171 15.702 181.645 16.5574C181.118 17.3964 180.353 18.0544 179.35 18.5315C178.346 19.0085 177.154 19.2471 175.772 19.2471ZM198.079 1.60397V5.94688H193.44V19.0743H187.962V5.94688H183.372V1.60397H198.079ZM204.919 1.60397V11.4496C204.919 12.2556 205.092 12.8972 205.437 13.3743C205.799 13.8349 206.375 14.0652 207.165 14.0652C207.954 14.0652 208.538 13.8349 208.917 13.3743C209.295 12.8972 209.484 12.2556 209.484 11.4496V1.60397H214.937V11.4496C214.937 13.1111 214.592 14.534 213.901 15.7184C213.21 16.8864 212.264 17.7665 211.063 18.3587C209.862 18.951 208.522 19.2471 207.041 19.2471C205.561 19.2471 204.245 18.951 203.093 18.3587C201.958 17.7665 201.07 16.8864 200.428 15.7184C199.787 14.5505 199.466 13.1275 199.466 11.4496V1.60397H204.919ZM224.579 1.60397C226.405 1.60397 228.001 1.9741 229.367 2.71437C230.748 3.45464 231.809 4.48279 232.55 5.79883C233.29 7.11487 233.66 8.61186 233.66 10.2898C233.66 11.9513 233.29 13.4483 232.55 14.7808C231.809 16.1133 230.748 17.1661 229.367 17.9393C228.001 18.696 226.405 19.0743 224.579 19.0743H217.3V1.60397H224.579ZM224.086 14.1886C225.32 14.1886 226.299 13.8513 227.022 13.1769C227.746 12.5024 228.108 11.54 228.108 10.2898C228.108 9.03957 227.746 8.07722 227.022 7.40275C226.299 6.72828 225.32 6.39105 224.086 6.39105H222.778V14.1886H224.086ZM241.116 5.97156V8.11834H246.545V12.2392H241.116V14.7067H247.285V19.0743H235.638V1.60397H247.285V5.97156H241.116ZM266.104 19.0743H260.626L254.828 10.2898V19.0743H249.35V1.60397H254.828L260.626 10.5366V1.60397H266.104V19.0743ZM282.299 1.60397V5.94688H277.66V19.0743H272.182V5.94688H267.592V1.60397H282.299ZM287.484 10.3145C287.484 8.58718 287.83 7.04906 288.52 5.70013C289.228 4.35119 290.231 3.30659 291.531 2.56632C292.83 1.8096 294.36 1.43124 296.121 1.43124C297.634 1.43124 298.983 1.71912 300.167 2.29489C301.368 2.8542 302.339 3.65205 303.079 4.68843C303.836 5.7248 304.338 6.93391 304.584 8.31575H298.81C298.547 7.73998 298.169 7.29582 297.675 6.98326C297.198 6.65425 296.647 6.48975 296.022 6.48975C295.101 6.48975 294.369 6.83521 293.826 7.52613C293.299 8.21705 293.036 9.1465 293.036 10.3145C293.036 11.4825 293.299 12.4119 293.826 13.1028C294.369 13.7937 295.101 14.1392 296.022 14.1392C296.647 14.1392 297.198 13.9829 297.675 13.6704C298.169 13.3414 298.547 12.889 298.81 12.3132H304.584C304.338 13.695 303.836 14.9042 303.079 15.9405C302.339 16.9769 301.368 17.783 300.167 18.3587C298.983 18.9181 297.634 19.1977 296.121 19.1977C294.36 19.1977 292.83 18.8276 291.531 18.0873C290.231 17.3306 289.228 16.2778 288.52 14.9288C287.83 13.5799 287.484 12.0418 287.484 10.3145ZM322.719 1.60397V19.0743H317.241V12.2639H312.035V19.0743H306.557V1.60397H312.035V7.89626H317.241V1.60397H322.719ZM336.387 16.434H330.563L329.7 19.0743H323.95L330.341 1.60397H336.658L343.024 19.0743H337.25L336.387 16.434ZM335.054 12.3132L333.475 7.4521L331.896 12.3132H335.054ZM358.556 7.60015C358.556 8.70233 358.301 9.70581 357.791 10.6106C357.281 11.4989 356.525 12.2063 355.521 12.7327C354.534 13.2591 353.333 13.5223 351.918 13.5223H349.747V19.0743H344.269V1.60397H351.918C354.057 1.60397 355.694 2.14683 356.829 3.23256C357.98 4.31829 358.556 5.77415 358.556 7.60015ZM351.302 9.20407C352.437 9.20407 353.004 8.66943 353.004 7.60015C353.004 6.53088 352.437 5.99624 351.302 5.99624H349.747V9.20407H351.302ZM374.013 1.60397V5.94688H369.374V19.0743H363.896V5.94688H359.307V1.60397H374.013ZM380.977 5.97156V8.11834H386.406V12.2392H380.977V14.7067H387.146V19.0743H375.499V1.60397H387.146V5.97156H380.977ZM397.995 19.0743L394.713 12.8067H394.688V19.0743H389.21V1.60397H397.353C398.768 1.60397 399.977 1.85895 400.981 2.36891C401.984 2.86243 402.733 3.54512 403.226 4.41699C403.736 5.27242 403.991 6.24299 403.991 7.32872C403.991 8.4967 403.662 9.53308 403.004 10.4379C402.363 11.3426 401.433 11.9924 400.216 12.3872L404.016 19.0743H397.995ZM394.688 9.15472H396.86C397.386 9.15472 397.781 9.03957 398.044 8.80926C398.308 8.56251 398.439 8.18415 398.439 7.67418C398.439 7.21357 398.299 6.85166 398.02 6.58845C397.757 6.32524 397.37 6.19364 396.86 6.19364H394.688V9.15472Z" fill="#FFD600"/>
<path d="M208.507 31.1551C208.507 31.7237 208.375 32.2414 208.112 32.7081C207.849 33.1664 207.459 33.5313 206.941 33.8029C206.432 34.0744 205.812 34.2102 205.083 34.2102H203.962V37.0743H201.136V28.0618H205.083C206.186 28.0618 207.03 28.3419 207.616 28.902C208.21 29.4621 208.507 30.2131 208.507 31.1551ZM204.764 31.9825C205.35 31.9825 205.643 31.7067 205.643 31.1551C205.643 30.6035 205.35 30.3277 204.764 30.3277H203.962V31.9825H204.764ZM213.935 37.0743L212.242 33.841H212.229V37.0743H209.403V28.0618H213.604C214.334 28.0618 214.958 28.1934 215.475 28.4565C215.993 28.7111 216.379 29.0632 216.634 29.513C216.897 29.9543 217.028 30.455 217.028 31.0151C217.028 31.6176 216.858 32.1523 216.519 32.619C216.188 33.0858 215.709 33.421 215.081 33.6246L217.041 37.0743H213.935ZM212.229 31.9571H213.349C213.621 31.9571 213.825 31.8977 213.96 31.7789C214.096 31.6516 214.164 31.4564 214.164 31.1933C214.164 30.9557 214.092 30.769 213.948 30.6332C213.812 30.4974 213.612 30.4295 213.349 30.4295H212.229V31.9571ZM220.757 30.315V31.4224H223.557V33.5483H220.757V34.8212H223.939V37.0743H217.931V28.0618H223.939V30.315H220.757ZM228.53 37.1634C227.453 37.1634 226.562 36.9131 225.857 36.4124C225.161 35.9032 224.784 35.1607 224.724 34.1847H227.728C227.771 34.7024 228 34.9612 228.416 34.9612C228.569 34.9612 228.696 34.9273 228.798 34.8594C228.908 34.783 228.963 34.6685 228.963 34.5157C228.963 34.3036 228.849 34.1338 228.619 34.0065C228.39 33.8707 228.034 33.718 227.55 33.5483C226.973 33.3446 226.494 33.1452 226.112 32.95C225.738 32.7548 225.416 32.4705 225.144 32.0971C224.873 31.7237 224.741 31.2442 224.75 30.6587C224.75 30.0731 224.898 29.5767 225.195 29.1693C225.501 28.7535 225.912 28.4395 226.43 28.2273C226.956 28.0152 227.546 27.9091 228.199 27.9091C229.303 27.9091 230.177 28.1637 230.822 28.6729C231.475 29.182 231.819 29.8991 231.853 30.8242H228.81C228.802 30.5696 228.738 30.3871 228.619 30.2768C228.501 30.1665 228.356 30.1113 228.187 30.1113C228.068 30.1113 227.97 30.1537 227.894 30.2386C227.818 30.315 227.779 30.4253 227.779 30.5696C227.779 30.7732 227.89 30.943 228.11 31.0787C228.339 31.206 228.7 31.363 229.192 31.5497C229.761 31.7619 230.228 31.9656 230.593 32.1607C230.966 32.3559 231.288 32.6275 231.56 32.9754C231.832 33.3234 231.967 33.7604 231.967 34.2866C231.967 34.8382 231.832 35.3346 231.56 35.7759C231.288 36.2087 230.894 36.5482 230.376 36.7943C229.858 37.0404 229.243 37.1634 228.53 37.1634ZM235.786 30.315V31.4224H238.587V33.5483H235.786V34.8212H238.969V37.0743H232.96V28.0618H238.969V30.315H235.786ZM248.677 37.0743H245.851L242.86 32.5426V37.0743H240.034V28.0618H242.86L245.851 32.6699V28.0618H248.677V37.0743ZM257.031 28.0618V30.3022H254.638V37.0743H251.812V30.3022H249.444V28.0618H257.031ZM261.324 37.1634C260.246 37.1634 259.355 36.9131 258.651 36.4124C257.955 35.9032 257.577 35.1607 257.518 34.1847H260.522C260.564 34.7024 260.793 34.9612 261.209 34.9612C261.362 34.9612 261.489 34.9273 261.591 34.8594C261.701 34.783 261.757 34.6685 261.757 34.5157C261.757 34.3036 261.642 34.1338 261.413 34.0065C261.184 33.8707 260.827 33.718 260.344 33.5483C259.767 33.3446 259.287 33.1452 258.905 32.95C258.532 32.7548 258.209 32.4705 257.938 32.0971C257.666 31.7237 257.535 31.2442 257.543 30.6587C257.543 30.0731 257.692 29.5767 257.989 29.1693C258.294 28.7535 258.706 28.4395 259.223 28.2273C259.75 28.0152 260.339 27.9091 260.993 27.9091C262.096 27.9091 262.97 28.1637 263.615 28.6729C264.269 29.182 264.612 29.8991 264.646 30.8242H261.604C261.595 30.5696 261.532 30.3871 261.413 30.2768C261.294 30.1665 261.15 30.1113 260.98 30.1113C260.861 30.1113 260.764 30.1537 260.687 30.2386C260.611 30.315 260.573 30.4253 260.573 30.5696C260.573 30.7732 260.683 30.943 260.904 31.0787C261.133 31.206 261.494 31.363 261.986 31.5497C262.554 31.7619 263.021 31.9656 263.386 32.1607C263.759 32.3559 264.082 32.6275 264.353 32.9754C264.625 33.3234 264.761 33.7604 264.761 34.2866C264.761 34.8382 264.625 35.3346 264.353 35.7759C264.082 36.2087 263.687 36.5482 263.17 36.7943C262.652 37.0404 262.037 37.1634 261.324 37.1634Z" fill="white"/>
</svg>
