<svg width="336" height="39" viewBox="0 0 336 39" fill="none" xmlns="http://www.w3.org/2000/svg">
<path d="M11.6 11.45V15.8H22.6V24.15H11.6V29.15H24.1V38H0.5V2.6H24.1V11.45H11.6ZM62.2332 38H51.1332L39.3832 20.2V38H28.2832V2.6H39.3832L51.1332 20.7V2.6H62.2332V38ZM78.348 2.6V38H67.248V2.6H78.348ZM105.061 14.7C104.628 14 104.011 13.4667 103.211 13.1C102.411 12.7 101.445 12.5 100.311 12.5C98.178 12.5 96.528 13.2 95.3613 14.6C94.1947 15.9667 93.6113 17.85 93.6113 20.25C93.6113 23.0167 94.2613 25.0833 95.5613 26.45C96.8613 27.8167 98.8613 28.5 101.561 28.5C104.128 28.5 106.195 27.4667 107.761 25.4H98.9113V17.55H116.961V28.65C115.428 31.2833 113.311 33.55 110.611 35.45C107.911 37.3167 104.495 38.25 100.361 38.25C96.6947 38.25 93.4947 37.5 90.7613 36C88.0613 34.4667 85.978 32.3333 84.5113 29.6C83.078 26.8667 82.3613 23.75 82.3613 20.25C82.3613 16.75 83.078 13.6333 84.5113 10.9C85.978 8.16667 88.0613 6.05 90.7613 4.55C93.4613 3.01667 96.628 2.25 100.261 2.25C104.895 2.25 108.661 3.36667 111.561 5.6C114.495 7.83333 116.228 10.8667 116.761 14.7H105.061ZM163.509 2.6V38H152.459V20.35L147.009 38H137.509L132.059 20.35V38H120.959V2.6H134.559L142.359 23.85L149.959 2.6H163.509ZM191.218 32.65H179.418L177.668 38H166.018L178.968 2.6H191.768L204.668 38H192.968L191.218 32.65ZM188.518 24.3L185.318 14.45L182.118 24.3H188.518ZM273.365 17.35H262.365L268.265 2.6H275.565L273.365 17.35ZM280.162 29.15C284.628 25.8167 288.162 22.8 290.762 20.1C293.362 17.3667 294.662 14.8167 294.662 12.45C294.662 11.65 294.478 11.0333 294.112 10.6C293.778 10.1667 293.328 9.95 292.762 9.95C292.095 9.95 291.562 10.3 291.162 11C290.795 11.6667 290.662 12.7 290.762 14.1H280.012C280.112 11 280.778 8.45 282.012 6.45C283.278 4.45 284.912 2.98333 286.912 2.05C288.912 1.11666 291.112 0.649998 293.512 0.649998C297.778 0.649998 300.895 1.68333 302.862 3.75C304.862 5.78333 305.862 8.4 305.862 11.6C305.862 14.9667 304.778 18.1333 302.612 21.1C300.478 24.0333 297.795 26.5167 294.562 28.55H306.012V37.5H280.162V29.15ZM309.332 12.9C309.432 8.93333 310.582 5.9 312.782 3.8C315.015 1.7 318.165 0.649998 322.232 0.649998C324.865 0.649998 327.115 1.1 328.982 2C330.849 2.9 332.249 4.11667 333.182 5.65C334.149 7.18333 334.632 8.91667 334.632 10.85C334.632 13.1833 334.082 15.0167 332.982 16.35C331.882 17.65 330.649 18.5333 329.282 19V19.2C333.282 20.7 335.282 23.4833 335.282 27.55C335.282 29.6833 334.782 31.5667 333.782 33.2C332.782 34.8333 331.349 36.1 329.482 37C327.649 37.9 325.465 38.35 322.932 38.35C318.599 38.35 315.199 37.3167 312.732 35.25C310.265 33.1833 308.999 29.95 308.932 25.55H319.732C319.665 26.75 319.832 27.6667 320.232 28.3C320.665 28.9 321.399 29.2 322.432 29.2C323.032 29.2 323.532 28.9833 323.932 28.55C324.332 28.0833 324.532 27.4833 324.532 26.75C324.532 25.8167 324.215 25.1167 323.582 24.65C322.982 24.15 321.949 23.9 320.482 23.9H318.632V14.95H320.432C322.699 15.0833 323.832 14.1833 323.832 12.25C323.832 11.4167 323.649 10.8 323.282 10.4C322.949 10 322.515 9.8 321.982 9.8C320.749 9.8 320.132 10.8333 320.132 12.9H309.332Z" fill="white"/>
<path d="M246.732 38L240.232 28.8L234.832 38H222.182L233.832 19.75L221.682 2.6H234.832L241.082 11.45L246.282 2.6H258.932L247.482 20.5L259.882 38H246.732Z" fill="#FFD600"/>
</svg>
