<svg width="42" height="32" viewBox="0 0 42 32" fill="none" xmlns="http://www.w3.org/2000/svg">
<path d="M34.4801 1.02805L31.8428 3.08843L20.6137 11.433L9.38468 3.00601L6.7474 0.945637C6.1261 0.431665 5.36766 0.111266 4.56605 0.0241329C3.76444 -0.0630005 2.95487 0.0869616 2.23766 0.45544C1.52044 0.823918 0.92709 1.39472 0.531113 2.09713C0.135136 2.79954 -0.0460641 3.60269 0.00996067 4.40707V28.2868C0.00996067 29.03 0.305182 29.7427 0.830681 30.2682C1.35618 30.7937 2.06891 31.089 2.81207 31.089H9.38468V15.1828L20.6137 23.6098L31.8428 15.1828V31.089H38.4154C39.1586 31.089 39.8713 30.7937 40.3968 30.2682C40.9223 29.7427 41.2175 29.03 41.2175 28.2868V4.40707C41.2562 3.60963 41.0624 2.81812 40.6597 2.12875C40.2569 1.43939 39.6626 0.88186 38.949 0.52394C38.2353 0.16602 37.433 0.0231218 36.6397 0.112616C35.8463 0.202109 35.0961 0.520141 34.4801 1.02805Z" fill="white"/>
</svg>
